<svg xmlns="http://www.w3.org/2000/svg" width="25" height="28.969" viewBox="0 0 25 28.969">
  <metadata><?xpacket begin="﻿" id="W5M0MpCehiHzreSzNTczkc9d"?>
<x:xmpmeta xmlns:x="adobe:ns:meta/" x:xmptk="Adobe XMP Core 5.6-c142 79.160924, 2017/07/13-01:06:39        ">
   <rdf:RDF xmlns:rdf="http://www.w3.org/1999/02/22-rdf-syntax-ns#">
      <rdf:Description rdf:about=""/>
   </rdf:RDF>
</x:xmpmeta>
                                                                                                    
                                                                                                    
                                                                                                    
                                                                                                    
                                                                                                    
                                                                                                    
                                                                                                    
                                                                                                    
                                                                                                    
                                                                                                    
                                                                                                    
                                                                                                    
                                                                                                    
                                                                                                    
                                                                                                    
                                                                                                    
                                                                                                    
                                                                                                    
                                                                                                    
                                                                                                    
                           
<?xpacket end="w"?></metadata>
<defs>
    <style>
      .cls-1 {
        fill: #fafafa;
        fill-rule: evenodd;
      }
    </style>
  </defs>
  <path id="Apple" class="cls-1" d="M417.949,699.458v-0.61L417.7,698.7a5.877,5.877,0,0,1-.913-10.067l0.608-.305-0.405-.508a6.967,6.967,0,0,0-5.426-3,3.909,3.909,0,0,0-1.461.314,6.471,6.471,0,0,0,1.714-4.483,6.592,6.592,0,0,0-.05-0.966v-0.152l-0.051-.153a0.5,0.5,0,0,0-.254-0.3,0.572,0.572,0,0,0-.405-0.05c-2.688.762-5.528,2.9-5.528,6.66,0,0.216,0,.433.024,0.673a4.962,4.962,0,0,1-1.241-.572,4.927,4.927,0,0,0-2.637-.864c-5.121,0-8.671,4.677-8.671,8.846a22.083,22.083,0,0,0,2.738,9.914c1.572,2.847,3.4,4.321,5.325,4.321a7.8,7.8,0,0,0,2.231-.507,6.709,6.709,0,0,1,2.637-.662,7.475,7.475,0,0,1,2.282.56,7.8,7.8,0,0,0,2.383.559c4.006,0,7.4-5.034,7.4-8.185C418,699.662,417.949,699.56,417.949,699.458Zm-7.2-19.269a0.861,0.861,0,0,1,0,.509,5.905,5.905,0,0,1-4.209,5.592,2.958,2.958,0,0,1-.05-0.609A5.885,5.885,0,0,1,410.748,680.189Zm6.238,19.371v0.153c0,3.813-3.956,7.168-6.39,7.168a6.541,6.541,0,0,1-2.079-.508,7.971,7.971,0,0,0-2.637-.611,7.869,7.869,0,0,0-2.992.712,5.862,5.862,0,0,1-1.825.508c-1.927,0-3.5-2.033-4.412-3.762a21.288,21.288,0,0,1-2.637-9.456,7.957,7.957,0,0,1,7.657-7.829,4.177,4.177,0,0,1,2.181.762,4.641,4.641,0,0,0,2.434.813,7.2,7.2,0,0,0,3.3-.965,4.974,4.974,0,0,1,2.028-.661,5.6,5.6,0,0,1,4.311,2.186,6.611,6.611,0,0,0-2.536,5.339,6.464,6.464,0,0,0,3.6,6v0.153Z" transform="translate(-393 -679.031)"/>
</svg>
