<svg xmlns="http://www.w3.org/2000/svg" width="52" height="60" viewBox="0 0 52 60">
  <metadata><?xpacket begin="﻿" id="W5M0MpCehiHzreSzNTczkc9d"?>
<x:xmpmeta xmlns:x="adobe:ns:meta/" x:xmptk="Adobe XMP Core 5.6-c142 79.160924, 2017/07/13-01:06:39        ">
   <rdf:RDF xmlns:rdf="http://www.w3.org/1999/02/22-rdf-syntax-ns#">
      <rdf:Description rdf:about=""/>
   </rdf:RDF>
</x:xmpmeta>
                                                                                                    
                                                                                                    
                                                                                                    
                                                                                                    
                                                                                                    
                                                                                                    
                                                                                                    
                                                                                                    
                                                                                                    
                                                                                                    
                                                                                                    
                                                                                                    
                                                                                                    
                                                                                                    
                                                                                                    
                                                                                                    
                                                                                                    
                                                                                                    
                                                                                                    
                                                                                                    
                           
<?xpacket end="w"?></metadata>
<defs>
    <style>
      .cls-1 {
        fill: #fff;
        fill-rule: evenodd;
      }
    </style>
  </defs>
  <path id="Forma_1" data-name="Forma 1" class="cls-1" d="M1136,4385.48a6.513,6.513,0,0,0-6.37-6.47V4379h-39.17a6.451,6.451,0,0,0-6.46,6.43V4439l20.16-13.37,20.17,13.37v-33.62H1136v-19.9Zm-13.8,49.58-18.04-11.96-18.04,11.96v-49.63a4.338,4.338,0,0,1,4.34-4.32h33.98a7.437,7.437,0,0,0-2.09,3.81h0c-0.05.24-.08,0.48-0.11,0.72s-0.04.49-.04,0.75v48.67Zm11.68-31.79h-9.55v-16.88a5.194,5.194,0,0,1,.1-1.05,5.328,5.328,0,0,1,3.96-4.07l0.11-.03a4.262,4.262,0,0,1,.8-0.09,2.3,2.3,0,0,1,.26-0.03,4.388,4.388,0,0,1,4.32,4.36v17.79Z" transform="translate(-1084 -4379)"/>
</svg>
