<svg xmlns="http://www.w3.org/2000/svg" width="27" height="29" viewBox="0 0 27 29">
  <metadata><?xpacket begin="﻿" id="W5M0MpCehiHzreSzNTczkc9d"?>
<x:xmpmeta xmlns:x="adobe:ns:meta/" x:xmptk="Adobe XMP Core 5.6-c142 79.160924, 2017/07/13-01:06:39        ">
   <rdf:RDF xmlns:rdf="http://www.w3.org/1999/02/22-rdf-syntax-ns#">
      <rdf:Description rdf:about=""/>
   </rdf:RDF>
</x:xmpmeta>
                                                                                                    
                                                                                                    
                                                                                                    
                                                                                                    
                                                                                                    
                                                                                                    
                                                                                                    
                                                                                                    
                                                                                                    
                                                                                                    
                                                                                                    
                                                                                                    
                                                                                                    
                                                                                                    
                                                                                                    
                                                                                                    
                                                                                                    
                                                                                                    
                                                                                                    
                                                                                                    
                           
<?xpacket end="w"?></metadata>
<defs>
    <style>
      .cls-1 {
        fill: #fafafa;
        fill-rule: evenodd;
      }
    </style>
  </defs>
  <path id="Play_store" data-name="Play store" class="cls-1" d="M621.514,691.013l-21.036-11.556a2.94,2.94,0,0,0-2.945-.119A2.837,2.837,0,0,0,596,681.85v23.3a2.837,2.837,0,0,0,1.533,2.513,2.943,2.943,0,0,0,2.945-.119l21.037-11.556A2.825,2.825,0,0,0,621.514,691.013Zm-7.071-1.708-2.9,2.851-10.283-10.095Zm-16.508,16.164V681.53L610.17,693.5Zm3.321-.531,10.283-10.1,2.9,2.852Zm19.314-10.609-4.372,2.4-3.291-3.23,3.291-3.231,4.371,2.4A0.941,0.941,0,0,1,620.57,694.329Z" transform="translate(-596 -679)"/>
</svg>
