<svg xmlns="http://www.w3.org/2000/svg" width="72" height="60" viewBox="0 0 72 60">
  <metadata><?xpacket begin="﻿" id="W5M0MpCehiHzreSzNTczkc9d"?>
<x:xmpmeta xmlns:x="adobe:ns:meta/" x:xmptk="Adobe XMP Core 5.6-c142 79.160924, 2017/07/13-01:06:39        ">
   <rdf:RDF xmlns:rdf="http://www.w3.org/1999/02/22-rdf-syntax-ns#">
      <rdf:Description rdf:about=""/>
   </rdf:RDF>
</x:xmpmeta>
                                                                                                    
                                                                                                    
                                                                                                    
                                                                                                    
                                                                                                    
                                                                                                    
                                                                                                    
                                                                                                    
                                                                                                    
                                                                                                    
                                                                                                    
                                                                                                    
                                                                                                    
                                                                                                    
                                                                                                    
                                                                                                    
                                                                                                    
                                                                                                    
                                                                                                    
                                                                                                    
                           
<?xpacket end="w"?></metadata>
<defs>
    <style>
      .cls-1 {
        fill: #fff;
        fill-rule: evenodd;
      }
    </style>
  </defs>
  <path id="Icon" class="cls-1" d="M535.171,4398.05A20.368,20.368,0,0,0,514.9,4379a21.293,21.293,0,0,0-16.734,8.24c-0.09-.04-0.185-0.07-0.276-0.12-0.238-.11-0.479-0.22-0.725-0.31-0.137-.06-0.274-0.1-0.412-0.15-0.243-.08-0.49-0.16-0.742-0.23-0.138-.03-0.275-0.07-0.415-0.1-0.269-.06-0.546-0.11-0.824-0.15-0.121-.01-0.24-0.04-0.362-0.05a12.115,12.115,0,0,0-1.211-.07,10.708,10.708,0,0,0-10.8,10.59c0,0.15.01,0.3,0.02,0.44a16.232,16.232,0,0,0-8.42,13.86,15.282,15.282,0,0,0,15.414,15.11H495.6a1.175,1.175,0,1,0,0-2.35h-6.186a12.907,12.907,0,0,1-13.014-12.76,13.979,13.979,0,0,1,7.72-12.07l0.68-.32v-0.74c0-.14.009-0.28,0.018-0.43l0.013-.21-0.015-.23c-0.008-.1-0.016-0.2-0.016-0.3a8.333,8.333,0,0,1,8.4-8.24,8.047,8.047,0,0,1,1.1.08c0.094,0.01.188,0.03,0.28,0.04a7.657,7.657,0,0,1,.947.21l0.127,0.03a7.312,7.312,0,0,1,1,.38l0.252,0.12a9.032,9.032,0,0,1,.842.46,8.2,8.2,0,0,1,3.85,6.92,1.2,1.2,0,0,0,2.4,0,10.5,10.5,0,0,0-3.84-8.09,19.146,19.146,0,0,1,14.741-7.21,17.973,17.973,0,0,1,17.818,16.34,23.328,23.328,0,0,0-4.9.15,1.178,1.178,0,0,0-1.006,1.34,1.2,1.2,0,0,0,1.185,1,1.114,1.114,0,0,0,.181-0.02,22.9,22.9,0,0,1,5.621,0,12.122,12.122,0,0,1,9.8,11.75,11.937,11.937,0,0,1-12.034,11.8H526.8a1.175,1.175,0,1,0,0,2.35h4.766A14.312,14.312,0,0,0,546,4411.91,14.534,14.534,0,0,0,535.171,4398.05Zm-15.219,29.53-7.552,7.4v-24.22a1.2,1.2,0,0,0-2.4,0v24.22l-7.552-7.4a1.215,1.215,0,0,0-1.7,0,1.153,1.153,0,0,0,0,1.66l9.6,9.41a1.206,1.206,0,0,0,1.7,0l9.6-9.41a1.153,1.153,0,0,0,0-1.66A1.215,1.215,0,0,0,519.952,4427.58Z" transform="translate(-474 -4379)"/>
</svg>
