<svg xmlns="http://www.w3.org/2000/svg" width="33" height="35" viewBox="0 0 33 35">
  <metadata><?xpacket begin="﻿" id="W5M0MpCehiHzreSzNTczkc9d"?>
<x:xmpmeta xmlns:x="adobe:ns:meta/" x:xmptk="Adobe XMP Core 5.6-c142 79.160924, 2017/07/13-01:06:39        ">
   <rdf:RDF xmlns:rdf="http://www.w3.org/1999/02/22-rdf-syntax-ns#">
      <rdf:Description rdf:about=""/>
   </rdf:RDF>
</x:xmpmeta>
                                                                                                    
                                                                                                    
                                                                                                    
                                                                                                    
                                                                                                    
                                                                                                    
                                                                                                    
                                                                                                    
                                                                                                    
                                                                                                    
                                                                                                    
                                                                                                    
                                                                                                    
                                                                                                    
                                                                                                    
                                                                                                    
                                                                                                    
                                                                                                    
                                                                                                    
                                                                                                    
                           
<?xpacket end="w"?></metadata>
<defs>
    <style>
      .cls-1 {
        fill: #00cff1;
        fill-rule: evenodd;
      }
    </style>
  </defs>
  <path id="Icon" class="cls-1" d="M990.248,2165.45a0.589,0.589,0,0,0-.406.73c0.016,0.06,1.6,5.69,1.166,18.21a0.594,0.594,0,0,0,.573.61H991.6a0.593,0.593,0,0,0,.594-0.57c0.444-12.71-1.145-18.35-1.212-18.58A0.6,0.6,0,0,0,990.248,2165.45Zm14.942-5.67a16.045,16.045,0,0,0-20.956-8.54,18.909,18.909,0,0,0-3.062,1.6,0.592,0.592,0,1,0,.648.99,18.377,18.377,0,0,1,2.872-1.5,14.887,14.887,0,0,1,19.408,7.91c0.97,2.28,1.49,6.49,1.72,8.8a0.6,0.6,0,0,0,.59.54c0.02,0,.04-0.01.06-0.01a0.6,0.6,0,0,0,.53-0.65C1006.72,2166.03,1006.17,2162.08,1005.19,2159.78Zm-25.78-4.02a0.592,0.592,0,1,0-.835-0.84c-3.2,3.14-6.381,8.98-3.4,18.98a0.588,0.588,0,0,0,.57.42,0.985,0.985,0,0,0,.169-0.02,0.6,0.6,0,0,0,.4-0.74C974.089,2166.1,975.158,2159.94,979.41,2155.76Zm11.46-2.19a12.308,12.308,0,0,0-5.262.95,12.45,12.45,0,0,0-7.209,14.88,15.185,15.185,0,0,1,.442,1.89,76.275,76.275,0,0,1,.224,8.37,0.595,0.595,0,0,0,1.189,0,74.889,74.889,0,0,0-.236-8.54,15.935,15.935,0,0,0-.475-2.04,11.274,11.274,0,0,1,6.522-13.47,11.432,11.432,0,0,1,4.763-.86c4.227,0.15,9.018,3.87,10.462,8.12,1.25,3.68,1.26,9.95,1.11,15.59a0.593,0.593,0,0,0,.58.61,0.614,0.614,0,0,0,.61-0.58c0.15-5.75.14-12.15-1.17-16C1000.8,2157.74,995.622,2153.74,990.87,2153.57Zm-0.457,3.55a8.732,8.732,0,0,0-1.912.21,0.586,0.586,0,0,0-.453.7,0.592,0.592,0,0,0,.709.45,8.315,8.315,0,0,1,1.656-.18,7.715,7.715,0,0,1,7.116,4.71c1.445,3.41,1.539,8.87,1.206,18.41a0.588,0.588,0,0,0,.573.61h0.021a0.591,0.591,0,0,0,.593-0.57c0.348-9.92.238-15.28-1.3-18.91A8.9,8.9,0,0,0,990.413,2157.12ZM986,2159.69a0.593,0.593,0,1,0-.683-0.97,9.426,9.426,0,0,0-3.308,10.26,46.317,46.317,0,0,1,1.219,11.27,0.595,0.595,0,1,0,1.189,0,46.661,46.661,0,0,0-1.262-11.58A8.245,8.245,0,0,1,986,2159.69Zm10.3,18.79a0.593,0.593,0,0,0-.59-0.6h0a0.593,0.593,0,0,0-.6.59c0,0.45.012,1.1,0.028,1.8,0.023,1.02.05,2.18,0.024,2.93a0.588,0.588,0,0,0,.574.61h0.02a0.593,0.593,0,0,0,.594-0.57c0.027-.78,0-1.96-0.024-3C996.315,2179.55,996.3,2178.92,996.3,2178.48Zm-5.891-17.21a4.621,4.621,0,0,0-1.831.37,4.818,4.818,0,0,0-2.615,6.06c0.448,1.35.826,8.46,0.826,15.52a0.595,0.595,0,0,0,1.189,0c0-6.35-.339-14.23-0.885-15.89a3.648,3.648,0,0,1,1.943-4.6,3.586,3.586,0,0,1,4.66,1.9c1.11,2.63,1.44,7.37,1.521,10.89a0.589,0.589,0,0,0,.594.58h0.014a0.594,0.594,0,0,0,.58-0.6c-0.083-3.63-.431-8.53-1.616-11.33A4.75,4.75,0,0,0,990.413,2161.27Z" transform="translate(-974 -2150)"/>
</svg>
