<svg xmlns="http://www.w3.org/2000/svg" width="30" height="20" viewBox="0 0 30 20">
  <metadata><?xpacket begin="﻿" id="W5M0MpCehiHzreSzNTczkc9d"?>
<x:xmpmeta xmlns:x="adobe:ns:meta/" x:xmptk="Adobe XMP Core 5.6-c142 79.160924, 2017/07/13-01:06:39        ">
   <rdf:RDF xmlns:rdf="http://www.w3.org/1999/02/22-rdf-syntax-ns#">
      <rdf:Description rdf:about=""/>
   </rdf:RDF>
</x:xmpmeta>
                                                                                                    
                                                                                                    
                                                                                                    
                                                                                                    
                                                                                                    
                                                                                                    
                                                                                                    
                                                                                                    
                                                                                                    
                                                                                                    
                                                                                                    
                                                                                                    
                                                                                                    
                                                                                                    
                                                                                                    
                                                                                                    
                                                                                                    
                                                                                                    
                                                                                                    
                                                                                                    
                           
<?xpacket end="w"?></metadata>
<defs>
    <style>
      .cls-1 {
        fill: #fff;
        fill-rule: evenodd;
      }
    </style>
  </defs>
  <path id="Icon" class="cls-1" d="M1509.99,8450.58a0.227,0.227,0,0,0,.01-0.04,0.448,0.448,0,0,0-.01-0.11v-0.03a0.476,0.476,0,0,0-.05-0.14,0.035,0.035,0,0,0-.01-0.02v-0.01h-0.01a0.02,0.02,0,0,0-.01-0.02,0.573,0.573,0,0,0-.11-0.11c-0.01-.01-0.02-0.01-0.03-0.02a0.666,0.666,0,0,0-.12-0.06,0.433,0.433,0,0,0-.05-0.01,0.41,0.41,0,0,0-.11-0.01,0.127,0.127,0,0,0-.06.01h-0.04l-29,6a0.5,0.5,0,0,0-.13.93l8.31,4.39,1.45,8.09c0,0.01.01,0.01,0,.02v0.12a0.127,0.127,0,0,1,.01.06,0.754,0.754,0,0,0,.06.13,0.037,0.037,0,0,0,.01.03h0.01a0.053,0.053,0,0,0,.02.03,0.572,0.572,0,0,0,.07.08c0.01,0,.01.01,0.02,0.01s0.01,0.01.02,0.01a0.313,0.313,0,0,0,.1.05,0.147,0.147,0,0,0,.04.02,0.585,0.585,0,0,0,.13.02h0.04a0.463,0.463,0,0,0,.35-0.16l5.54-3.69,5.79,3.77a0.566,0.566,0,0,0,.28.08,0.4,0.4,0,0,0,.15-0.03,0.465,0.465,0,0,0,.31-0.3l7-19a0.433,0.433,0,0,0,.01-0.05,0.02,0.02,0,0,0,.01-0.02v-0.02Zm-5.79,3.19-11.98,8.83a0.218,0.218,0,0,0-.05.04l-0.02.02c-0.01.01-.02,0.03-0.03,0.04l-0.03.03a1.037,1.037,0,0,1-.04.1c0,0.01-.01.01-0.01,0.02h0l-1.38,4.47-1.09-6.05Zm-12.76,14.51,1.36-4.5,2.12,1.38,0.61,0.4-2.06,1.37Zm14.55-16.55-16.97,8.7-7.06-3.73Zm-3.74,17.01-7.69-5.01-1.17-.76,15.07-11.09Z" transform="translate(-1480 -8450)"/>
</svg>
