<svg xmlns="http://www.w3.org/2000/svg" width="64.03" height="60" viewBox="0 0 64.03 60">
  <metadata><?xpacket begin="﻿" id="W5M0MpCehiHzreSzNTczkc9d"?>
<x:xmpmeta xmlns:x="adobe:ns:meta/" x:xmptk="Adobe XMP Core 5.6-c142 79.160924, 2017/07/13-01:06:39        ">
   <rdf:RDF xmlns:rdf="http://www.w3.org/1999/02/22-rdf-syntax-ns#">
      <rdf:Description rdf:about=""/>
   </rdf:RDF>
</x:xmpmeta>
                                                                                                    
                                                                                                    
                                                                                                    
                                                                                                    
                                                                                                    
                                                                                                    
                                                                                                    
                                                                                                    
                                                                                                    
                                                                                                    
                                                                                                    
                                                                                                    
                                                                                                    
                                                                                                    
                                                                                                    
                                                                                                    
                                                                                                    
                                                                                                    
                                                                                                    
                                                                                                    
                           
<?xpacket end="w"?></metadata>
<defs>
    <style>
      .cls-1 {
        fill: #fff;
        fill-rule: evenodd;
      }
    </style>
  </defs>
  <path id="Icon" class="cls-1" d="M1441.9,4396.89c-0.93-10.37-8.21-17.9-17.32-17.9a17.2,17.2,0,0,0-14.76,8.57,16.588,16.588,0,0,0-14.4-8.57c-9.11,0-16.39,7.52-17.33,17.89a18.858,18.858,0,0,0,.55,6.81,29.181,29.181,0,0,0,8.86,14.91l22.31,20.41,22.68-20.41a29.2,29.2,0,0,0,8.87-14.91A18.412,18.412,0,0,0,1441.9,4396.89Zm-2.94,6.23a26.71,26.71,0,0,1-8.11,13.63l-21.03,18.92-20.66-18.91a26.785,26.785,0,0,1-8.13-13.64,16.32,16.32,0,0,1-.51-5.84l0.02-.13c0.8-9.08,7.06-15.68,14.88-15.68,5.77,0,10.85,3.58,13.26,9.33l1.14,2.71,1.13-2.71a14.883,14.883,0,0,1,13.63-9.33c7.82,0,14.08,6.6,14.89,15.8A16.375,16.375,0,0,1,1438.96,4403.12Z" transform="translate(-1377.97 -4379)"/>
</svg>
