<svg xmlns="http://www.w3.org/2000/svg" width="50" height="44.97" viewBox="0 0 50 44.97">
  <metadata><?xpacket begin="﻿" id="W5M0MpCehiHzreSzNTczkc9d"?>
<x:xmpmeta xmlns:x="adobe:ns:meta/" x:xmptk="Adobe XMP Core 5.6-c142 79.160924, 2017/07/13-01:06:39        ">
   <rdf:RDF xmlns:rdf="http://www.w3.org/1999/02/22-rdf-syntax-ns#">
      <rdf:Description rdf:about=""/>
   </rdf:RDF>
</x:xmpmeta>
                                                                                                    
                                                                                                    
                                                                                                    
                                                                                                    
                                                                                                    
                                                                                                    
                                                                                                    
                                                                                                    
                                                                                                    
                                                                                                    
                                                                                                    
                                                                                                    
                                                                                                    
                                                                                                    
                                                                                                    
                                                                                                    
                                                                                                    
                                                                                                    
                                                                                                    
                                                                                                    
                           
<?xpacket end="w"?></metadata>
<defs>
    <style>
      .cls-1 {
        fill: #fff;
        fill-rule: evenodd;
      }
    </style>
  </defs>
  <path id="Branding_Icon" data-name="Branding Icon" class="cls-1" d="M1435,1262.5a2.8,2.8,0,0,0-1.53-2.51l-3.73-1.88,3.73-1.88h0a2.824,2.824,0,0,0,0-5.02l-21.02-10.63a5.423,5.423,0,0,0-4.9,0l-21.02,10.63a2.824,2.824,0,0,0,0,5.02l3.73,1.88-3.73,1.88a2.824,2.824,0,0,0,0,5.02l3.73,1.88-3.73,1.88a2.824,2.824,0,0,0,0,5.02l21.02,10.63a5.465,5.465,0,0,0,4.9,0l21.02-10.63a2.824,2.824,0,0,0,0-5.02l-3.73-1.88,3.73-1.88A2.8,2.8,0,0,0,1435,1262.5Zm-47.44-8.35a0.462,0.462,0,0,1-.26-0.43,0.453,0.453,0,0,1,.26-0.43l21.02-10.63a3.135,3.135,0,0,1,2.84,0l21.02,10.63a0.453,0.453,0,0,1,.26.43,0.462,0.462,0,0,1-.26.43l-21.02,10.62a3.156,3.156,0,0,1-2.84,0Zm44.88,16.7a0.486,0.486,0,0,1,0,.86l-21.02,10.63a3.156,3.156,0,0,1-2.84,0l-21.02-10.63a0.486,0.486,0,0,1,0-.86l5.27-2.66,14.72,7.45a5.465,5.465,0,0,0,4.9,0l14.72-7.45Zm0-7.92-21.02,10.63a3.156,3.156,0,0,1-2.84,0l-21.02-10.63a0.486,0.486,0,0,1,0-.86l5.27-2.66,14.72,7.44a5.382,5.382,0,0,0,4.9,0l14.72-7.44,5.27,2.66A0.486,0.486,0,0,1,1432.44,1262.93Z" transform="translate(-1385 -1240.03)"/>
</svg>
