<svg xmlns="http://www.w3.org/2000/svg" width="32" height="40" viewBox="0 0 32 40">
  <metadata><?xpacket begin="﻿" id="W5M0MpCehiHzreSzNTczkc9d"?>
<x:xmpmeta xmlns:x="adobe:ns:meta/" x:xmptk="Adobe XMP Core 5.6-c142 79.160924, 2017/07/13-01:06:39        ">
   <rdf:RDF xmlns:rdf="http://www.w3.org/1999/02/22-rdf-syntax-ns#">
      <rdf:Description rdf:about=""/>
   </rdf:RDF>
</x:xmpmeta>
                                                                                                    
                                                                                                    
                                                                                                    
                                                                                                    
                                                                                                    
                                                                                                    
                                                                                                    
                                                                                                    
                                                                                                    
                                                                                                    
                                                                                                    
                                                                                                    
                                                                                                    
                                                                                                    
                                                                                                    
                                                                                                    
                                                                                                    
                                                                                                    
                                                                                                    
                                                                                                    
                           
<?xpacket end="w"?></metadata>
<defs>
    <style>
      .cls-1 {
        fill: #fff;
        fill-rule: evenodd;
      }
    </style>
  </defs>
  <path id="Edit_Icon" data-name="Edit Icon" class="cls-1" d="M505.033,1260.16l1.66,10.88-1.049,12.26a0.648,0.648,0,0,0,.162.49,0.633,0.633,0,0,0,.462.21h9.222a0.628,0.628,0,0,0,.459-0.21,0.635,0.635,0,0,0,.165-0.48l-0.873-12.01a0.618,0.618,0,0,0,.054-0.18l1.671-10.96a0.666,0.666,0,0,0-.059-0.39l-5.347-10.96a0.616,0.616,0,0,0-1.121,0l-5.347,10.96A0.674,0.674,0,0,0,505.033,1260.16Zm1.919,22.55,0.946-11.04h6.113l0.8,11.04h-7.862ZM511,1261.39a1.756,1.756,0,1,1-1.713,1.75A1.731,1.731,0,0,1,511,1261.39Zm-0.627-9.57v8.35a3.036,3.036,0,0,0-2.339,2.97,2.967,2.967,0,1,0,5.932,0,3.036,3.036,0,0,0-2.339-2.97v-8.35l4.07,8.34-1.557,10.22h-6.28l-1.557-10.22Zm-11.739-3.11h3.342a0.635,0.635,0,0,0,.627-0.64V1247H519.4v1.07a0.635,0.635,0,0,0,.626.64h3.342a0.636,0.636,0,0,0,.627-0.64v-3.43a0.635,0.635,0,0,0-.627-0.64h-3.342a0.635,0.635,0,0,0-.626.64v1.07H502.6v-1.07a0.635,0.635,0,0,0-.627-0.64h-3.342a0.635,0.635,0,0,0-.626.64v3.43A0.635,0.635,0,0,0,498.634,1248.71Zm22.016-3.43h2.089v2.15H520.65v-2.15Zm-21.389,0h2.089v2.15h-2.089v-2.15Zm-3.634,18.85a0.635,0.635,0,0,0,.626-0.64,14.751,14.751,0,1,1,29.493,0,0.627,0.627,0,1,0,1.254,0,16.005,16.005,0,1,0-32,0A0.635,0.635,0,0,0,495.627,1264.13Z" transform="translate(-495 -1244)"/>
</svg>
