<svg xmlns="http://www.w3.org/2000/svg" width="39" height="35" viewBox="0 0 39 35">
  <metadata><?xpacket begin="﻿" id="W5M0MpCehiHzreSzNTczkc9d"?>
<x:xmpmeta xmlns:x="adobe:ns:meta/" x:xmptk="Adobe XMP Core 5.6-c142 79.160924, 2017/07/13-01:06:39        ">
   <rdf:RDF xmlns:rdf="http://www.w3.org/1999/02/22-rdf-syntax-ns#">
      <rdf:Description rdf:about=""/>
   </rdf:RDF>
</x:xmpmeta>
                                                                                                    
                                                                                                    
                                                                                                    
                                                                                                    
                                                                                                    
                                                                                                    
                                                                                                    
                                                                                                    
                                                                                                    
                                                                                                    
                                                                                                    
                                                                                                    
                                                                                                    
                                                                                                    
                                                                                                    
                                                                                                    
                                                                                                    
                                                                                                    
                                                                                                    
                                                                                                    
                           
<?xpacket end="w"?></metadata>
<defs>
    <style>
      .cls-1 {
        fill: #00cff1;
        fill-rule: evenodd;
      }
    </style>
  </defs>
  <path id="Icon" class="cls-1" d="M1012.99,1930.13c0-.03.01-0.05,0.01-0.08v-0.09c-0.01-.03-0.01-0.06-0.02-0.08a0.14,0.14,0,0,0-.03-0.09,0.075,0.075,0,0,0-.01-0.05,0.053,0.053,0,0,0-.02-0.03,0.048,0.048,0,0,1-.01-0.04l-6.51-10.37a0.58,0.58,0,0,0-.1-0.12h0a0.533,0.533,0,0,0-.2-0.13,0.035,0.035,0,0,0-.02-0.01h-0.02a0.522,0.522,0,0,0-.21-0.04h-24.7a0.471,0.471,0,0,0-.2.04h-0.02c-0.01,0-.016.01-0.025,0.01a0.694,0.694,0,0,0-.187.12,0.011,0.011,0,0,0-.011.01,0.608,0.608,0,0,0-.106.12l-6.5,10.37c-0.007.01-.009,0.03-0.015,0.04s-0.015.02-.02,0.03-0.009.03-.015,0.04a0.765,0.765,0,0,0-.042.18,0.543,0.543,0,0,0,0,.09,0.725,0.725,0,0,0,.009.08,0.5,0.5,0,0,0,.024.09,0.642,0.642,0,0,0,.029.08c0.006,0.01.008,0.02,0.014,0.03a0.192,0.192,0,0,0,.038.05,0.1,0.1,0,0,0,.026.04l18.846,23.33h0l0,0.01H993a0.472,0.472,0,0,0,.192.15,0.161,0.161,0,0,0,.058.03,0.544,0.544,0,0,0,.249.06,0.585,0.585,0,0,0,.223-0.04,0.051,0.051,0,0,0,.029-0.02,0.343,0.343,0,0,0,.089-0.05,0.656,0.656,0,0,0,.134-0.11c0.009-.01.023-0.01,0.031-0.02l18.854-23.34a0.138,0.138,0,0,0,.03-0.04,0.219,0.219,0,0,0,.03-0.05c0.01-.01.01-0.02,0.02-0.03,0.01-.03.02-0.05,0.03-0.08S1012.98,1930.16,1012.99,1930.13Zm-18.124-9.83h10.054l-3.16,8.45Zm5.724,9.07H986.415l7.085-8.69Zm-15.393-.56-3.12-8.51h10.057Zm15.843,1.86-7.654,20.48-7.508-20.48h15.162Zm4.96-9.56,5.18,8.26h-8.27Zm-25.007.01,3.026,8.25h-8.2Zm3.5,9.55,7.046,19.22-15.535-19.22h8.489Zm10.564,19.72,7.372-19.72h8.56Z" transform="translate(-974 -1919)"/>
</svg>
