<svg xmlns="http://www.w3.org/2000/svg" width="33" height="35" viewBox="0 0 33 35">
  <metadata><?xpacket begin="﻿" id="W5M0MpCehiHzreSzNTczkc9d"?>
<x:xmpmeta xmlns:x="adobe:ns:meta/" x:xmptk="Adobe XMP Core 5.6-c142 79.160924, 2017/07/13-01:06:39        ">
   <rdf:RDF xmlns:rdf="http://www.w3.org/1999/02/22-rdf-syntax-ns#">
      <rdf:Description rdf:about=""/>
   </rdf:RDF>
</x:xmpmeta>
                                                                                                    
                                                                                                    
                                                                                                    
                                                                                                    
                                                                                                    
                                                                                                    
                                                                                                    
                                                                                                    
                                                                                                    
                                                                                                    
                                                                                                    
                                                                                                    
                                                                                                    
                                                                                                    
                                                                                                    
                                                                                                    
                                                                                                    
                                                                                                    
                                                                                                    
                                                                                                    
                           
<?xpacket end="w"?></metadata>
<defs>
    <style>
      .cls-1 {
        fill: #00cff1;
        fill-rule: evenodd;
      }
    </style>
  </defs>
  <path id="Forma_1" data-name="Forma 1" class="cls-1" d="M1292.45,2172.16a2.113,2.113,0,0,0,1.53-.85l5.48-7.55a0.592,0.592,0,0,0-.06-0.76,0.605,0.605,0,0,0-.76-0.06l-7.57,5.47a2.054,2.054,0,0,0-.86,1.52,2.114,2.114,0,0,0,.61,1.63,2.082,2.082,0,0,0,1.47.61C1292.35,2172.17,1292.4,2172.16,1292.45,2172.16Zm-1.07-2.14a0.931,0.931,0,0,1,.37-0.67l4.62-3.33-3.34,4.6a0.909,0.909,0,0,1-.67.38,0.948,0.948,0,0,1-.71-0.27A0.911,0.911,0,0,1,1291.38,2170.02Zm14.18-8.61a0.076,0.076,0,0,0-.01-0.04c-0.01-.01-0.02-0.01-0.03-0.02a15.605,15.605,0,0,0-2.08-2.81l1.25-1.25,0.83,0.82,2.48-2.47-2.48-2.48-2.48,2.48,0.83,0.82-1.26,1.26a15.892,15.892,0,0,0-2.81-2.09,0.053,0.053,0,0,1-.03-0.02,0.076,0.076,0,0,0-.04-0.01,15.639,15.639,0,0,0-6.01-1.99v-0.69h0.88a1.46,1.46,0,0,0,0-2.92h-5.27a1.46,1.46,0,0,0,0,2.92h0.88v0.67a17.309,17.309,0,0,0-1.89.31,0.591,0.591,0,0,0-.44.7,0.583,0.583,0,0,0,.7.44,15,15,0,0,1,1.63-.28l0.63-.05,0.54-.03v1.15a0.585,0.585,0,1,0,1.17,0v-1.15a14.565,14.565,0,0,1,6.12,1.66l-0.58,1a0.586,0.586,0,0,0,.21.8,0.619,0.619,0,0,0,.29.07,0.575,0.575,0,0,0,.51-0.29l0.58-.99a14.755,14.755,0,0,1,4.54,4.53l-0.99.58a0.566,0.566,0,0,0-.21.79,0.559,0.559,0,0,0,.5.29,0.592,0.592,0,0,0,.29-0.07l1-.58a14.454,14.454,0,0,1,1.67,6.2h-1.16a0.58,0.58,0,1,0,0,1.16h1.16a14.454,14.454,0,0,1-1.67,6.2l-1-.58a0.582,0.582,0,0,0-.58,1.01l1,0.57a14.82,14.82,0,0,1-4.55,4.54l-0.58-.99a0.582,0.582,0,1,0-1.01.58l0.58,0.99a14.565,14.565,0,0,1-6.12,1.66v-1.14a0.585,0.585,0,1,0-1.17,0v1.15a14.808,14.808,0,0,1-2.8-.36,0.581,0.581,0,0,0-.7.44,0.6,0.6,0,0,0,.44.7,16.373,16.373,0,0,0,3.55.4h0.11a15.7,15.7,0,0,0,7.73-2.09c0.02-.01.04-0.01,0.06-0.02s0.01-.02.02-0.03a15.838,15.838,0,0,0,5.72-5.69c0.01-.02.03-0.03,0.04-0.05s0-.02.01-0.03A15.62,15.62,0,0,0,1305.56,2161.41Zm-0.04-6.6,0.83,0.83-0.83.82-0.83-.82Zm-14.14-1.3v-1.76h-2.05a0.29,0.29,0,0,1,0-.58h5.27a0.29,0.29,0,0,1,0,.58h-2.05v1.76c-0.21-.01-0.4-0.01-0.59-0.01h-0.09c-0.1,0-.19.01-0.29,0.01h-0.2Zm-4.68,4.66h-2.93a0.58,0.58,0,0,0,0,1.16h2.93A0.58,0.58,0,0,0,1286.7,2158.17Zm0,4.08h-5.85a0.585,0.585,0,1,0,0,1.17h5.85A0.585,0.585,0,0,0,1286.7,2162.25Zm0,4.08h-8.78a0.585,0.585,0,0,0,0,1.17h8.78A0.585,0.585,0,0,0,1286.7,2166.33Zm0,4.09h-11.12a0.58,0.58,0,1,0,0,1.16h11.12A0.58,0.58,0,0,0,1286.7,2170.42Zm0,4.08h-7.61a0.585,0.585,0,0,0,0,1.17h7.61A0.585,0.585,0,0,0,1286.7,2174.5Zm0,4.08h-4.1a0.585,0.585,0,0,0,0,1.17h4.1A0.585,0.585,0,0,0,1286.7,2178.58Z" transform="translate(-1275 -2150)"/>
</svg>
