<svg xmlns="http://www.w3.org/2000/svg" width="66" height="60" viewBox="0 0 66 60">
  <metadata><?xpacket begin="﻿" id="W5M0MpCehiHzreSzNTczkc9d"?>
<x:xmpmeta xmlns:x="adobe:ns:meta/" x:xmptk="Adobe XMP Core 5.6-c142 79.160924, 2017/07/13-01:06:39        ">
   <rdf:RDF xmlns:rdf="http://www.w3.org/1999/02/22-rdf-syntax-ns#">
      <rdf:Description rdf:about=""/>
   </rdf:RDF>
</x:xmpmeta>
                                                                                                    
                                                                                                    
                                                                                                    
                                                                                                    
                                                                                                    
                                                                                                    
                                                                                                    
                                                                                                    
                                                                                                    
                                                                                                    
                                                                                                    
                                                                                                    
                                                                                                    
                                                                                                    
                                                                                                    
                                                                                                    
                                                                                                    
                                                                                                    
                                                                                                    
                                                                                                    
                           
<?xpacket end="w"?></metadata>
<defs>
    <style>
      .cls-1 {
        fill: #fff;
        fill-rule: evenodd;
      }
    </style>
  </defs>
  <path id="Icon" class="cls-1" d="M837.515,4425.79l-10.508-5.21A2.865,2.865,0,0,1,825.4,4418v-3.69c0.252-.31.517-0.65,0.791-1.04a24.888,24.888,0,0,0,3.249-6.32A4.336,4.336,0,0,0,832,4403v-4.36a4.356,4.356,0,0,0-1.1-2.87v-5.8a9.73,9.73,0,0,0-2.3-7.12c-2.26-2.55-5.926-3.85-10.9-3.85s-8.639,1.3-10.9,3.85a9.452,9.452,0,0,0-2.27,5.24,14.472,14.472,0,0,0-6.631-1.45c-11.428,0-12.093,9.66-12.1,9.81v5a3.781,3.781,0,0,0-1.1,2.54v3.77a3.9,3.9,0,0,0,1.442,3.02,16.684,16.684,0,0,0,4.008,6.85v2.99a2.362,2.362,0,0,1-1.288,2.09l-7.318,4.56a8.618,8.618,0,0,0-4.544,7.59V4439h66v-4.41A9.781,9.781,0,0,0,837.515,4425.79Zm-45.115,8.59v2.44H779.2v-1.96a6.477,6.477,0,0,1,3.455-5.71l7.317-4.55a4.534,4.534,0,0,0,2.377-3.98v-3.91l-0.349-.33a14.435,14.435,0,0,1-3.815-6.49l-0.1-.44-0.377-.24a1.722,1.722,0,0,1-.808-1.45v-3.77a1.9,1.9,0,0,1,.738-1.28l0.362-.32,0-5.87c0.02-.32.593-7.7,9.9-7.7a11.524,11.524,0,0,1,6.6,1.79v5.16a4.356,4.356,0,0,0-1.1,2.87V4403a4.262,4.262,0,0,0,.111.97,3.746,3.746,0,0,0,.13.37,4.226,4.226,0,0,0,.193.54c0,0.01,0,.01,0,0.01a4.314,4.314,0,0,0,1.209,1.5c0,0.02.012,0.04,0.017,0.06,0.066,0.25.136,0.5,0.21,0.74l0.089,0.29c0.016,0.05.035,0.1,0.051,0.15,0.039,0.12.076,0.23,0.116,0.35,0.066,0.19.135,0.39,0.215,0.6,0.034,0.09.072,0.17,0.107,0.26,0.09,0.23.18,0.45,0.275,0.67,0.023,0.05.043,0.11,0.066,0.16l0.061,0.13c0.029,0.07.059,0.12,0.087,0.19,0.108,0.23.214,0.46,0.324,0.67a1.162,1.162,0,0,0,.051.11c0.07,0.14.139,0.27,0.208,0.4,0.119,0.22.236,0.43,0.352,0.64,0.058,0.1.114,0.2,0.17,0.29q0.237,0.4.455,0.75c0.032,0.05.063,0.1,0.094,0.14,0.266,0.41.5,0.74,0.688,1l0.138,0.19c0.024,0.03.057,0.08,0.078,0.11v3.6a2.893,2.893,0,0,1-1.515,2.54l-2.91,1.57-0.508-.04-0.206.43-6.189,3.34A9.837,9.837,0,0,0,792.4,4434.38Zm48.4,2.44H794.6v-2.44a7.645,7.645,0,0,1,4.025-6.73l9.813-5.31a5.054,5.054,0,0,0,2.662-4.44v-4.39h0l-0.213-.25-0.042-.05s-0.071-.09-0.182-0.23a0.273,0.273,0,0,0-.021-0.03q-0.087-.1-0.2-0.27s0,0,0-.01c-0.163-.22-0.369-0.51-0.6-0.87,0-.01-0.01-0.01-0.015-0.02-0.108-.17-0.223-0.35-0.339-0.54-0.009-.02-0.018-0.03-0.027-0.05-0.248-.41-0.512-0.88-0.775-1.4h0c-0.14-.28-0.28-0.57-0.416-0.87h0c-0.019-.05-0.038-0.09-0.057-0.13h0c-0.061-.14-0.121-0.28-0.183-0.43-0.022-.05-0.044-0.11-0.066-0.16-0.057-.14-0.115-0.29-0.177-0.45q-0.168-.45-0.319-0.93l-0.06-.19c-0.007-.03-0.015-0.05-0.021-0.07-0.1-.34-0.2-0.7-0.286-1.06l-0.1-.43-0.376-.24A2.17,2.17,0,0,1,805.6,4403v-4.36a2.125,2.125,0,0,1,.737-1.61l0.363-.33v-7.18l-0.03-.02a7.508,7.508,0,0,1,1.786-5.21c1.822-2.06,4.933-3.11,9.244-3.11,4.295,0,7.4,1.04,9.225,3.09a7.633,7.633,0,0,1,1.785,5.5l-0.01,6.93,0.363,0.33a2.125,2.125,0,0,1,.737,1.61V4403a2.167,2.167,0,0,1-1.564,2.07l-0.548.17-0.176.54a22.8,22.8,0,0,1-3.118,6.23,14.065,14.065,0,0,1-.92,1.18l-0.274.31v4.5a5.04,5.04,0,0,0,2.823,4.53l10.508,5.21a7.6,7.6,0,0,1,4.269,6.85v2.23Z" transform="translate(-777 -4379)"/>
</svg>
